<?xml version="1.0" encoding="utf-8"?>
<!-- Generator: Adobe Illustrator 18.0.0, SVG Export Plug-In . SVG Version: 6.00 Build 0)  -->
<!DOCTYPE svg PUBLIC "-//W3C//DTD SVG 1.1//EN" "http://www.w3.org/Graphics/SVG/1.1/DTD/svg11.dtd">
<svg version="1.1" id="Layer_1" xmlns="http://www.w3.org/2000/svg" xmlns:xlink="http://www.w3.org/1999/xlink" x="0px" y="0px"
	 viewBox="0 0 124 49" enable-background="new 0 0 124 49" xml:space="preserve">
<circle opacity="0.16" fill="#FFFFFF" enable-background="new    " cx="24.7" cy="24.5" r="16"/>
<g opacity="0.9">
	<path fill="#FFFFFF" d="M24.5,25.8c0.1,0.2,0.2,0.4,0.2,0.6c0.1-0.2,0.2-0.4,0.2-0.6c0.1-0.2,0.2-0.4,0.3-0.6l3.6-6.8
		c0-0.1,0.1-0.2,0.1-0.2c0-0.1,0.1-0.1,0.2-0.1s0.1,0,0.2,0s0.2,0,0.3,0h1.7v12.3h-2v-7.9c0-0.1,0-0.3,0-0.5s0-0.4,0-0.5l-3.7,7
		c-0.1,0.2-0.2,0.3-0.3,0.4C25.2,29,25,29,24.8,29h-0.3c-0.2,0-0.3,0-0.5-0.1c-0.1-0.1-0.2-0.2-0.3-0.4l-3.8-7c0,0.2,0,0.4,0,0.5
		c0,0.2,0,0.3,0,0.5v7.9h-2V18h1.7c0.1,0,0.2,0,0.3,0c0.1,0,0.1,0,0.2,0s0.1,0.1,0.2,0.1c0.1,0.1,0.1,0.1,0.1,0.2l3.7,6.8
		C24.3,25.4,24.4,25.6,24.5,25.8z"/>
</g>
<path opacity="0.4" fill="#FFFFFF" d="M24.7,49C11.2,49,0.2,38,0.2,24.5S11.2,0,24.7,0s24.5,11,24.5,24.5S38.2,49,24.7,49z M24.7,1
	C11.7,1,1.2,11.5,1.2,24.5S11.7,48,24.7,48s23.5-10.5,23.5-23.5S37.7,1,24.7,1z"/>
<g opacity="0.9">
	<path fill="#FFFFFF" d="M62.4,27.8c0-0.1,0.1-0.1,0.1-0.2s0.1-0.1,0.1-0.2l3.9-6.9c0-0.1,0.1-0.1,0.1-0.1s0.1,0,0.2,0h0.5v9.9h-0.6
		v-8.4c0-0.1,0-0.2,0-0.4l-3.9,6.9c-0.1,0.1-0.2,0.2-0.3,0.2h-0.1c-0.1,0-0.2-0.1-0.3-0.2l-4-6.9c0,0.1,0,0.3,0,0.4v8.4h-0.6v-9.9
		H58c0.1,0,0.1,0,0.2,0l0.1,0.1l4,6.9C62.3,27.5,62.4,27.7,62.4,27.8z"/>
	<path fill="#FFFFFF" d="M76.1,20.4V21h-5.2v4h4.3v0.6h-4.3v4.1h5.2v0.6h-5.9v-9.9C70.2,20.4,76.1,20.4,76.1,20.4z"/>
	<path fill="#FFFFFF" d="M84.9,20.4V21h-3.5v9.3h-0.7V21h-3.5v-0.6H84.9z"/>
	<path fill="#FFFFFF" d="M94.3,30.3h-0.7v-4.7h-6.2v4.7h-0.7v-9.9h0.7V25h6.2v-4.6h0.7V30.3z"/>
	<path fill="#FFFFFF" d="M103.2,20.4V21H98v4h4.3v0.6H98v4.1h5.2v0.6h-6v-9.9C97.2,20.4,103.2,20.4,103.2,20.4z"/>
	<path fill="#FFFFFF" d="M114.3,25.3c0,0.8-0.1,1.5-0.3,2.1s-0.6,1.2-1,1.6s-0.9,0.8-1.5,1s-1.2,0.4-1.9,0.4c-0.7,0-1.3-0.1-1.9-0.4
		s-1.1-0.6-1.5-1s-0.7-1-1-1.6c-0.2-0.6-0.3-1.3-0.3-2.1c0-0.8,0.1-1.5,0.3-2.1s0.6-1.2,1-1.6s0.9-0.8,1.5-1s1.2-0.4,1.9-0.4
		c0.7,0,1.3,0.1,1.9,0.4c0.6,0.2,1.1,0.6,1.5,1s0.7,1,1,1.6C114.2,23.9,114.3,24.6,114.3,25.3z M113.6,25.3c0-0.7-0.1-1.3-0.3-1.9
		c-0.2-0.6-0.5-1-0.8-1.4s-0.8-0.7-1.3-0.9c-0.5-0.2-1-0.3-1.6-0.3s-1.1,0.1-1.6,0.3c-0.5,0.2-0.9,0.5-1.3,0.9s-0.6,0.8-0.8,1.4
		c-0.2,0.6-0.3,1.2-0.3,1.9s0.1,1.3,0.3,1.9c0.2,0.5,0.5,1,0.8,1.4c0.4,0.4,0.8,0.7,1.3,0.9c0.5,0.2,1,0.3,1.6,0.3s1.1-0.1,1.6-0.3
		c0.5-0.2,0.9-0.5,1.3-0.9s0.6-0.8,0.8-1.4C113.5,26.7,113.6,26,113.6,25.3z"/>
	<path fill="#FFFFFF" d="M117.6,25.8v4.5h-0.7v-9.9h2.5c1.1,0,2,0.2,2.6,0.7c0.6,0.4,0.8,1.1,0.8,1.9c0,0.4-0.1,0.7-0.2,1
		s-0.3,0.6-0.6,0.8c-0.2,0.2-0.5,0.4-0.9,0.6c-0.3,0.2-0.7,0.3-1.2,0.3c0.1,0.1,0.2,0.2,0.3,0.3l3.4,4.3H123c-0.1,0-0.1,0-0.2,0
		s-0.1-0.1-0.2-0.1l-3.2-4c-0.1-0.1-0.2-0.2-0.3-0.2s-0.2-0.1-0.4-0.1L117.6,25.8L117.6,25.8L117.6,25.8z M117.6,25.3h1.7
		c0.4,0,0.8-0.1,1.2-0.2c0.3-0.1,0.6-0.3,0.9-0.5s0.4-0.4,0.5-0.7c0.1-0.3,0.2-0.6,0.2-0.9c0-0.7-0.2-1.2-0.7-1.6s-1.1-0.5-2-0.5
		h-1.8L117.6,25.3L117.6,25.3z"/>
</g>
<g opacity="0.9">
	<path fill="#FFFFFF" d="M62.3,27.8c0-0.1,0.1-0.1,0.1-0.2s0.1-0.1,0.1-0.2l3.9-6.9c0-0.1,0.1-0.1,0.1-0.1s0.1,0,0.2,0h0.5v9.9h-0.6
		v-8.4c0-0.1,0-0.2,0-0.4l-3.9,6.9c-0.1,0.1-0.2,0.2-0.3,0.2h-0.1c-0.1,0-0.2-0.1-0.3-0.2l-4-6.9c0,0.1,0,0.3,0,0.4v8.4h-0.6v-9.9
		h0.5c0.1,0,0.1,0,0.2,0l0.1,0.1l4,6.9C62.2,27.5,62.3,27.7,62.3,27.8z"/>
	<path fill="#FFFFFF" d="M76,20.4V21h-5.2v4h4.3v0.6h-4.3v4.1H76v0.6h-5.9v-9.9C70.1,20.4,76,20.4,76,20.4z"/>
	<path fill="#FFFFFF" d="M84.8,20.4V21h-3.5v9.3h-0.7V21h-3.5v-0.6H84.8z"/>
	<path fill="#FFFFFF" d="M94.2,30.3h-0.7v-4.7h-6.2v4.7h-0.7v-9.9h0.7V25h6.2v-4.6h0.7V30.3z"/>
	<path fill="#FFFFFF" d="M103.1,20.4V21h-5.2v4h4.3v0.6h-4.3v4.1h5.2v0.6h-6v-9.9C97.1,20.4,103.1,20.4,103.1,20.4z"/>
	<path fill="#FFFFFF" d="M114.2,25.3c0,0.8-0.1,1.5-0.3,2.1s-0.6,1.2-1,1.6s-0.9,0.8-1.5,1s-1.2,0.4-1.9,0.4c-0.7,0-1.3-0.1-1.9-0.4
		s-1.1-0.6-1.5-1s-0.7-1-1-1.6c-0.2-0.6-0.3-1.3-0.3-2.1c0-0.8,0.1-1.5,0.3-2.1s0.6-1.2,1-1.6s0.9-0.8,1.5-1s1.2-0.4,1.9-0.4
		c0.7,0,1.3,0.1,1.9,0.4c0.6,0.2,1.1,0.6,1.5,1s0.7,1,1,1.6C114.1,23.9,114.2,24.6,114.2,25.3z M113.5,25.3c0-0.7-0.1-1.3-0.3-1.9
		c-0.2-0.6-0.5-1-0.8-1.4s-0.8-0.7-1.3-0.9c-0.5-0.2-1-0.3-1.6-0.3s-1.1,0.1-1.6,0.3c-0.5,0.2-0.9,0.5-1.3,0.9s-0.6,0.8-0.8,1.4
		c-0.2,0.6-0.3,1.2-0.3,1.9s0.1,1.3,0.3,1.9c0.2,0.5,0.5,1,0.8,1.4c0.4,0.4,0.8,0.7,1.3,0.9c0.5,0.2,1,0.3,1.6,0.3s1.1-0.1,1.6-0.3
		c0.5-0.2,0.9-0.5,1.3-0.9s0.6-0.8,0.8-1.4C113.4,26.7,113.5,26,113.5,25.3z"/>
	<path fill="#FFFFFF" d="M117.5,25.8v4.5h-0.7v-9.9h2.5c1.1,0,2,0.2,2.6,0.7c0.6,0.4,0.8,1.1,0.8,1.9c0,0.4-0.1,0.7-0.2,1
		s-0.3,0.6-0.6,0.8c-0.2,0.2-0.5,0.4-0.9,0.6c-0.3,0.2-0.7,0.3-1.2,0.3c0.1,0.1,0.2,0.2,0.3,0.3l3.4,4.3h-0.6c-0.1,0-0.1,0-0.2,0
		s-0.1-0.1-0.2-0.1l-3.2-4c-0.1-0.1-0.2-0.2-0.3-0.2s-0.2-0.1-0.4-0.1L117.5,25.8L117.5,25.8L117.5,25.8z M117.5,25.3h1.7
		c0.4,0,0.8-0.1,1.2-0.2c0.3-0.1,0.6-0.3,0.9-0.5s0.4-0.4,0.5-0.7c0.1-0.3,0.2-0.6,0.2-0.9c0-0.7-0.2-1.2-0.7-1.6s-1.1-0.5-2-0.5
		h-1.8L117.5,25.3L117.5,25.3z"/>
</g>
</svg>
